<?xml version="1.0" encoding="utf-8"?>
<!-- Generator: Adobe Illustrator 13.0.0, SVG Export Plug-In . SVG Version: 6.00 Build 14948)  -->
<!DOCTYPE svg PUBLIC "-//W3C//DTD SVG 1.1//EN" "http://www.w3.org/Graphics/SVG/1.1/DTD/svg11.dtd">
<svg version="1.1" id="Layer_2" xmlns="http://www.w3.org/2000/svg" xmlns:xlink="http://www.w3.org/1999/xlink" x="0px" y="0px"
	 width="1000px" height="663px" viewBox="0 0 1000 663" enable-background="new 0 0 1000 663" xml:space="preserve">
<polyline fill="none" stroke="#000000" points="98.165,63 126.869,67.251 150.71,54.925 164.142,31.381 188.66,34.386 
	258.914,34.524 282.194,22.621 309.28,24.517 340.925,23.545 372.387,24.132 461.444,24.359 490.261,39.543 546.599,67.586 
	572.554,64.29 588.906,62.847 622.286,64.033 671.469,65.016 696.94,64.214 747.718,67.589 754.303,86.433 760.848,103.999 
	767.333,128.309 774.733,153.397 780.73,193.398 785.616,213.65 789.134,238.621 793.323,268.352 795.572,284.318 797.636,298.97 
	801.773,328.337 803.74,342.297 805.989,358.263 810.317,388.984 812.388,403.674 814.5,418.667 "/>
<polyline fill="none" stroke="#000000" points="47.167,527.334 131.273,528.035 144.466,521.192 162.643,510.949 185.72,496.33 
	215.854,478.882 250.356,459.283 282.497,440.743 305.854,427.408 348.631,405.333 377.44,387.167 409.464,368.453 442.481,350.08 
	457.783,336.616 473.627,324.593 487.257,316.009 532.617,283.068 552.199,267.938 576.46,249.194 604.667,233.718 640.359,215.382 
	676.369,197.637 704.635,184.141 732.006,171.448 774.733,153.397 825.677,134.792 848.228,125.95 888.595,110.915 908.884,103.268 
	930.754,95.759 980.337,67.292 963.538,19.789 909.549,39.867 868.772,57.553 827.062,74.644 806.944,87.611 760.848,103.999 "/>
<polyline fill="none" stroke="#000000" points="258.914,34.524 258.358,75.457 257.201,101.384 257.766,128.37 260.012,146.883 
	261.585,166.597 279.807,196.965 295.209,227.363 305.67,246.136 315.672,266.308 334.239,302.941 352.397,336.63 366.463,364.039 
	377.44,387.167 432.257,399.289 463.501,401.544 491.986,402.593 528.521,406.976 560.25,406.924 584.249,410.765 613.988,414.486 
	650.5,415.061 680,415.524 696.75,415.788 713.5,416.052 740.75,417.48 767.25,417.779 798,419.126 815.25,418.217 848.75,419.617 
	883.75,420.732 964.25,423.75 958.146,376.506 951.987,355.267 945.284,335.763 938.053,307.25 932.887,277.75 928.949,261.756 
	914.125,247.76 909.123,220.225 961.772,212.932 955.807,160.448 930.754,95.759 "/>
<polyline fill="none" stroke="#000000" points="188.66,34.386 179.331,117.184 172.653,161.091 179.174,179.789 197.394,231.044 
	212.331,268.982 224.357,288.687 240.767,321.489 261.066,356.957 276.298,382.97 293.517,408.539 305.854,427.408 "/>
<polyline fill="none" stroke="#000000" points="98.165,63 97.434,123.226 96.947,156.428 109.521,186.653 126.199,222.985 
	131.58,240.128 139.255,259.624 150.425,291.871 175.845,317.661 187.315,330.266 197.502,343.837 216.024,364.064 239.438,386.555 
	260.155,411.997 282.497,440.743 298.376,476.695 305.833,508 312.619,532.049 316.846,565.328 322.252,602.65 329.834,655 
	381.812,642.921 427.261,633.631 462.402,624.718 497.493,616.318 521.834,600.667 528.838,577.003 525.256,556 516.08,522.667 
	505.81,449.033 501.686,431.922 528.521,406.976 "/>
<polyline fill="none" stroke="#000000" points="175.845,317.661 203.623,295.931 224.357,288.687 266.833,272.999 315.672,266.308 
	338.063,264.153 365.489,258.639 403.118,248.558 434.843,241.648 456.271,234.85 483.365,226.45 508.745,217.517 526.666,208.597 
	544.093,198.554 573.632,182.684 597.12,167.249 611.247,157.965 625.004,148.268 642.441,136.911 679.795,109.281 710.064,90.705 
	747.718,67.589 "/>
<polyline fill="none" stroke="#000000" points="150.425,291.871 132.473,318.3 116.052,339.805 67.459,378.21 48.396,400.671 
	57.318,413.533 52.935,496.219 47.167,527.334 "/>
<polyline fill="none" stroke="#000000" points="162.643,510.949 166.352,574.741 210.777,569.053 218.994,617.256 249,613.012 
	281.977,608.348 322.252,602.65 "/>
<polyline fill="none" stroke="#000000" points="525.256,556 559.201,552.567 562.165,591.988 589.03,586.518 593.868,623.905 
	621.167,637.678 644.832,641.329 669.483,639.679 694.489,638.004 720.199,636.281 718.446,562.326 717.77,533.794 716.064,502.229 
	741.797,500.651 743.84,531.048 770.464,530.252 770.878,468.163 793.69,468.369 798,419.126 "/>
<polyline fill="none" stroke="#000000" points="487.257,316.009 491.353,340.464 505.307,370.729 528.521,406.976 551.145,444.536 
	555.132,492.038 559.201,552.567 "/>
<polyline fill="none" stroke="#000000" points="387.5,133 437.029,122.338 487.324,111.511 518.787,104.737 527.195,134.57 
	536.812,172.243 544.093,198.554 550.008,215.518 565.75,234.692 576.46,249.194 598.973,261.77 636.772,259.452 658.207,259.195 
	676.748,259.986 700.291,256.721 721.263,251.818 742.497,247.984 764.463,243.018 789.134,238.621 821.796,232.993 
	855.453,227.193 881.495,223.706 909.123,220.225 "/>
<polyline fill="none" stroke="#000000" points="806.944,87.611 816.665,112.495 825.677,134.792 843.433,171.139 850.1,191.149 
	855.453,227.193 857.77,242.509 859.95,257.119 863.657,287.638 866.338,302.669 868.885,316.949 872.2,347.031 874.837,362.77 
	877.068,377.109 880.125,399.675 883.75,420.732 "/>
<polyline fill="none" stroke="#000000" points="372.387,24.132 374.561,44.226 375.056,63.27 376.942,97.838 387.5,133 
	392.097,150.358 401.447,179.02 413.033,208.379 423.873,224.09 434.843,241.648 445.857,261.441 454.111,283.238 462.446,305.02 
	473.627,324.593 "/>
<polyline fill="none" stroke="#000000" points="126.199,222.985 103.283,214.213 81.305,204.817 85.464,186.168 109.521,186.653 
	150.192,183.304 172.653,161.091 213.69,154.246 260.012,146.883 "/>
<polyline fill="none" stroke="#000000" points="126.869,67.251 124.981,95.227 123.123,122.758 121.302,149.73 141.065,170.593 
	150.192,183.304 179.174,179.789 216.444,174.28 261.585,166.597 306.543,162.009 351.198,155.928 392.097,150.358 "/>
<polyline fill="none" stroke="#000000" points="97.434,123.226 123.123,122.758 147.198,120.706 179.331,117.184 257.201,101.384 
	278.48,100.871 302.139,99.816 335.569,98.956 376.942,97.838 "/>
<polyline fill="none" stroke="#000000" points="150.71,54.925 147.198,120.706 141.065,170.593 "/>
<polyline fill="none" stroke="#000000" points="258.709,192.667 200.813,203.002 220.58,235.819 247.494,249.275 266.167,229.333 
	261.804,210.669 258.709,192.667 261.585,166.597 "/>
<line fill="none" stroke="#000000" x1="216.444" y1="174.28" x2="258.709" y2="192.667"/>
<line fill="none" stroke="#000000" x1="220.58" y1="235.819" x2="261.804" y2="210.669"/>
<line fill="none" stroke="#000000" x1="200.813" y1="203.002" x2="261.804" y2="210.669"/>
<line fill="none" stroke="#000000" x1="220.58" y1="235.819" x2="266.167" y2="229.333"/>
<polyline fill="none" stroke="#000000" points="302.139,99.816 303.601,82.339 305.252,62.62 339.5,64.746 375.056,63.27 
	427.179,62.813 480.215,63.265 482.083,86.94 487.324,111.511 491.875,128.324 496.466,144.771 507,182.5 "/>
<polyline fill="none" stroke="#000000" points="401.447,179.02 430.121,167.884 466.518,156.051 481.717,150.67 496.466,144.771 
	527.195,134.57 542.201,129.768 558.304,124.615 584.605,118.051 599.905,114.916 615.168,112 "/>
<line fill="none" stroke="#000000" x1="392.097" y1="150.358" x2="430.121" y2="167.884"/>
<polyline fill="none" stroke="#000000" points="456.271,234.85 447.086,203.892 478.843,192.69 493.154,186.29 507,182.5 
	536.812,172.243 "/>
<line fill="none" stroke="#000000" x1="490.261" y1="39.543" x2="480.215" y2="63.265"/>
<line fill="none" stroke="#000000" x1="305.252" y1="62.62" x2="309.28" y2="24.517"/>
<line fill="none" stroke="#000000" x1="258.358" y1="75.457" x2="303.601" y2="82.339"/>
<line fill="none" stroke="#000000" x1="179.331" y1="117.184" x2="257.766" y2="128.37"/>
<line fill="none" stroke="#000000" x1="466.518" y1="156.051" x2="478.843" y2="192.69"/>
<polyline fill="none" stroke="#000000" points="481.717,150.67 486.147,169.047 493.154,186.29 508.745,217.517 "/>
<polyline fill="none" stroke="#000000" points="279.807,196.965 347.121,190.035 375.554,184.27 401.447,179.02 "/>
<polyline fill="none" stroke="#000000" points="347.121,190.035 356.144,220.001 360.973,238.969 365.489,258.639 "/>
<polyline fill="none" stroke="#000000" points="295.209,227.363 356.144,220.001 413.033,208.379 "/>
<polyline fill="none" stroke="#000000" points="139.255,259.624 159.146,249.17 181.473,254.743 195.625,275.734 212.331,268.982 
	"/>
<line fill="none" stroke="#000000" x1="195.625" y1="275.734" x2="203.623" y2="295.931"/>
<line fill="none" stroke="#000000" x1="197.502" y1="343.837" x2="240.767" y2="321.489"/>
<polyline fill="none" stroke="#ff0000" points="266.833,272.999 285.578,314.414 303.314,304.128 313.509,323.662 348.631,405.333 
	"/>
<polyline fill="none" stroke="#000000" points="403.118,248.558 392.178,285.662 405.613,308.989 418.577,332.896 442.481,350.08 
	"/>
<line fill="none" stroke="#000000" x1="392.178" y1="285.662" x2="365.489" y2="258.639"/>
<line fill="none" stroke="#000000" x1="442.481" y1="350.08" x2="491.353" y2="340.464"/>
<polyline fill="none" stroke="#000000" points="463.501,401.544 483.338,381.448 505.307,370.729 524.176,381.173 548.575,371.695 
	536.392,345.306 561.468,329.271 596.833,317.667 614.169,375 613.988,414.486 611.323,446.643 606.485,476.999 593.397,509.925 
	583.215,529.671 585.428,551.306 586.619,562.958 589.03,586.518 "/>
<line fill="none" stroke="#000000" x1="524.176" y1="381.173" x2="528.521" y2="406.976"/>
<polyline fill="none" stroke="#000000" points="532.617,283.068 549.507,306.529 561.468,329.271 580.98,374.957 584.249,410.765 
	"/>
<polyline fill="none" stroke="#000000" points="580.98,374.957 614.169,375 635.813,372.804 653.538,369.46 669.835,367.001 "/>
<polyline fill="none" stroke="#000000" points="658.207,259.195 663.628,319.606 669.835,367.001 672.759,390.675 680,415.524 "/>
<polyline fill="none" stroke="#000000" points="636.772,259.452 644.938,313.03 653.538,369.46 "/>
<polyline fill="none" stroke="#000000" points="598.973,261.77 621.607,323.961 635.813,372.804 "/>
<polyline fill="none" stroke="#000000" points="546.599,67.586 549.606,100.078 558.304,124.615 565.625,154.61 573.632,182.684 
	590.466,211.022 604.667,233.718 "/>
<polyline fill="none" stroke="#000000" points="572.554,64.29 577.922,90.98 584.605,118.051 591.67,141.627 597.12,167.249 "/>
<polyline fill="none" stroke="#000000" points="588.906,62.847 615.168,112 620.017,129.734 625.004,148.268 "/>
<line fill="none" stroke="#000000" x1="622.286" y1="64.033" x2="615.168" y2="112"/>
<line fill="none" stroke="#000000" x1="671.469" y1="65.016" x2="679.795" y2="109.281"/>
<polyline fill="none" stroke="#000000" points="642.441,136.911 658.843,163.479 676.369,197.637 "/>
<polyline fill="none" stroke="#000000" points="827.062,74.644 837.354,99.592 848.228,125.95 "/>
<line fill="none" stroke="#000000" x1="780.73" y1="193.398" x2="843.433" y2="171.139"/>
<line fill="none" stroke="#000000" x1="785.616" y1="213.65" x2="850.1" y2="191.149"/>
<polyline fill="none" stroke="#000000" points="793.323,268.352 824.506,263.037 859.95,257.119 914.125,247.76 "/>
<polyline fill="none" stroke="#000000" points="797.636,298.97 830.146,293.87 863.657,287.638 898.902,283.082 932.887,277.75 "/>
<polyline fill="none" stroke="#000000" points="801.773,328.337 833.8,323.382 868.885,316.949 901.164,312.958 938.053,307.25 "/>
<polyline fill="none" stroke="#000000" points="805.989,358.263 839.476,352.854 872.2,347.031 906.454,342.035 945.284,335.763 "/>
<polyline fill="none" stroke="#000000" points="810.317,388.984 877.068,377.109 915.203,373.046 958.146,376.506 "/>
<polyline fill="none" stroke="#000000" points="700.291,256.721 702.001,277.347 702.406,298.677 705.861,335.976 708.359,372.648 
	713.5,416.052 "/>
<polyline fill="none" stroke="#000000" points="721.263,251.818 726.301,294.654 730.852,333.334 733.716,374.683 740.75,417.48 "/>
<polyline fill="none" stroke="#000000" points="742.497,247.984 747.548,275.766 750.027,303.014 754.598,330.989 758.678,372.692 
	767.25,417.779 "/>
<polyline fill="none" stroke="#000000" points="705.861,335.976 730.852,333.334 754.598,330.989 776.845,329.738 801.773,328.337 
	"/>
<polyline fill="none" stroke="#000000" points="767.25,417.779 768.114,443.667 770.878,468.163 "/>
<polyline fill="none" stroke="#000000" points="740.75,417.48 744.294,460.667 741.797,500.651 "/>
<polyline fill="none" stroke="#000000" points="694.489,638.004 693.846,617.316 693.308,600.007 692.728,581.333 692.209,564.668 
	699.748,534.333 694.833,501.333 716.064,502.229 713.5,416.052 "/>
<polyline fill="none" stroke="#000000" points="699.748,534.333 718.446,562.326 692.209,564.668 664.136,567.335 636.185,569.912 
	617.328,571.651 589.03,586.518 "/>
<polyline fill="none" stroke="#000000" points="680,415.524 687.271,462.003 694.833,501.333 676.802,503.333 677.367,520.667 
	678.098,537.993 692.209,564.668 "/>
<polyline fill="none" stroke="#000000" points="678.098,537.993 664.136,567.335 662.603,542.694 660.113,505.337 658.708,483.678 
	657.408,463.652 656.243,445.687 650.5,415.061 "/>
<polyline fill="none" stroke="#000000" points="621.167,637.678 619.267,604.993 617.328,571.651 586.619,562.958 625.477,558.151 
	664.136,567.335 "/>
<polyline fill="none" stroke="#000000" points="625.477,558.151 662.603,542.694 641.179,545.084 585.428,551.306 "/>
<polyline fill="none" stroke="#000000" points="593.397,509.925 626.854,507.28 660.113,505.337 676.802,503.333 "/>
<polyline fill="none" stroke="#000000" points="611.323,446.643 632.167,446.199 656.243,445.687 "/>
<polyline fill="none" stroke="#000000" points="636.185,569.912 640.269,603.647 642.366,620.974 644.832,641.329 "/>
<polyline fill="none" stroke="#000000" points="640.269,603.647 664.833,601.962 693.308,600.007 "/>
<line fill="none" stroke="#000000" x1="642.366" y1="620.974" x2="693.846" y2="617.316"/>
<polyline fill="none" stroke="#000000" points="187.315,330.266 151.638,370.783 142.309,383.111 112.5,422.5 128.373,437.81 
	151.812,461.722 185.72,496.33 204.309,532.076 210.777,569.053 260.835,570.337 271.355,584.133 280.559,597.991 281.977,608.348 
	"/>
<line fill="none" stroke="#000000" x1="204.309" y1="532.076" x2="215.854" y2="478.882"/>
<line fill="none" stroke="#000000" x1="218.994" y1="617.256" x2="260.835" y2="570.337"/>
<line fill="none" stroke="#000000" x1="116.052" y1="339.805" x2="151.638" y2="370.783"/>
<polyline fill="none" stroke="#000000" points="216.024,364.064 193.359,387.048 159.234,393.748 145.665,414.55 128.373,437.81 "/>
<line fill="none" stroke="#000000" x1="159.234" y1="393.748" x2="142.309" y2="383.111"/>
<polyline fill="none" stroke="#000000" points="67.459,378.21 89.897,400.273 112.5,422.5 97.938,441.76 61.847,481.014 
	52.935,496.219 "/>
<polyline fill="none" stroke="#000000" points="61.847,481.014 96.969,503.124 131.273,528.035 "/>
<polyline fill="none" stroke="#000000" points="57.318,413.533 74.862,428.7 97.938,441.76 113.745,459.099 129.957,475.868 
	162.643,510.949 "/>
<polyline fill="none" stroke="#000000" points="96.969,503.124 106.273,490.131 129.957,475.868 "/>
<polyline fill="none" stroke="#000000" points="432.257,399.289 432.431,412.638 447.583,435.107 413.537,454.396 366.301,482.553 
	342.169,495.343 305.833,508 "/>
<polyline fill="none" stroke="#000000" points="377.44,387.167 389.118,412.365 400.679,431.24 413.537,454.396 421.587,467.284 
	429.028,482.565 460.671,544.087 474.976,577.096 497.493,616.318 "/>
<polyline fill="none" stroke="#000000" points="312.619,532.049 350.324,520.669 387.588,505.165 407.763,494.215 429.028,482.565 
	461.339,460.417 480.489,446.98 501.686,431.922 "/>
<line fill="none" stroke="#000000" x1="400.679" y1="431.24" x2="432.431" y2="412.638"/>
<polyline fill="none" stroke="#000000" points="305.854,427.408 349.795,451.372 366.301,482.553 "/>
<line fill="none" stroke="#000000" x1="282.497" y1="440.743" x2="349.795" y2="451.372"/>
<polyline fill="none" stroke="#000000" points="387.588,505.165 400.589,529.075 404.479,561.003 412.495,586.558 418.776,606.581 
	427.261,633.631 "/>
<polyline fill="none" stroke="#000000" points="446.167,577.667 412.495,586.558 352.302,601.328 353.891,621.416 418.776,606.581 
	455.5,597.667 446.167,577.667 417.167,522.667 400.589,529.075 343.167,550.001 348.944,576.729 376.479,567.933 404.479,561.003 
	"/>
<line fill="none" stroke="#000000" x1="352.302" y1="601.328" x2="348.944" y2="576.729"/>
<polyline fill="none" stroke="#000000" points="461.339,460.417 476.537,495.649 491.267,529.802 504.798,561.17 521.834,600.667 
	"/>
<polyline fill="none" stroke="#000000" points="460.671,544.087 475.996,534.775 491.267,529.802 516.08,522.667 "/>
</svg>
